<!-- icon666.com - MILLIONS OF FREE VECTOR ICONS --><svg viewBox="0 0 512 512" xmlns="http://www.w3.org/2000/svg"><g id="Filled_outline" data-name="Filled outline"><rect fill="#5540b0" height="384" rx="24" width="288" x="152" y="24"></rect><path d="m384 376h-176a24 24 0 0 0 -24-24v-272a24 24 0 0 0 24-24h176a24 24 0 0 0 24 24v272a24 24 0 0 0 -24 24z" fill="#bc4598"></path><rect fill="#5f4bbc" height="384" rx="24" width="288" x="56" y="104"></rect><path d="m112 136h176a24 24 0 0 0 24 24v272a24 24 0 0 0 -24 24h-176a24 24 0 0 0 -24-24v-272a24 24 0 0 0 24-24z" fill="#bc4598"></path><path d="m235.672 302.776 44.328-14.776-44.328-14.776 28.328-49.224-49.224 28.328-14.776-76.328-14.776 76.328-49.224-28.328 28.328 49.224-44.328 14.776 44.328 14.776-28.328 49.224 49.224-28.328 14.776 76.328 14.776-76.328 49.224 28.328z" fill="#ffba40"></path><path d="m416 16h-240a32.036 32.036 0 0 0 -32 32v31h16v-31a16.019 16.019 0 0 1 16-16h240a16.019 16.019 0 0 1 16 16v336a16.019 16.019 0 0 1 -16 16h-48v16h48a32.036 32.036 0 0 0 32-32v-336a32.036 32.036 0 0 0 -32-32z"></path><path d="m385.367 353.38a31.876 31.876 0 0 0 -8.367 14.62h-9v16h16a8 8 0 0 0 8-8 16 16 0 0 1 16-16 8 8 0 0 0 8-8v-272a8 8 0 0 0 -8-8 16 16 0 0 1 -16-16 8 8 0 0 0 -8-8h-176a8 8 0 0 0 -8 8 16.018 16.018 0 0 1 -9.781 14.745l6.235 14.734a32.071 32.071 0 0 0 18.546-21.479h162.005a32.082 32.082 0 0 0 23 23v258.01a31.919 31.919 0 0 0 -14.638 8.37z"></path><path d="m320 96h-240a32.036 32.036 0 0 0 -32 32v32h16v-32a16.019 16.019 0 0 1 16-16h240a16.019 16.019 0 0 1 16 16v336a16.019 16.019 0 0 1 -16 16h-240a16.019 16.019 0 0 1 -16-16v-288h-16v288a32.036 32.036 0 0 0 32 32h240a32.036 32.036 0 0 0 32-32v-336a32.036 32.036 0 0 0 -32-32z"></path><path d="m104 456a8 8 0 0 0 8 8h176a8 8 0 0 0 8-8 16.019 16.019 0 0 1 16-16 8 8 0 0 0 8-8v-272a8 8 0 0 0 -8-8 16.019 16.019 0 0 1 -16-16 8 8 0 0 0 -8-8h-176a8 8 0 0 0 -8 8 16.019 16.019 0 0 1 -16 16 8 8 0 0 0 -8 8v272a8 8 0 0 0 8 8 16.019 16.019 0 0 1 16 16zm-8-289.013a32.118 32.118 0 0 0 22.988-22.987h162.024a32.118 32.118 0 0 0 22.988 22.987v258.026a32.118 32.118 0 0 0 -22.988 22.987h-162.024a32.118 32.118 0 0 0 -22.988-22.987z"></path><path d="m112 176h16v16h-16z"></path><path d="m112 248h16v16h-16z"></path><path d="m152 192h16v16h-16z"></path><path d="m272 192h16v16h-16z"></path><path d="m112 376h16v16h-16z"></path><path d="m160 400h16v16h-16z"></path><path d="m280 376h16v16h-16z"></path><path d="m232 416h16v16h-16z"></path><path d="m117.47 295.59 35.041 11.681-23.445 40.739a8 8 0 0 0 10.924 10.924l39.51-22.734 12.646 65.325a8 8 0 0 0 15.708 0l12.646-65.325 39.51 22.738a8 8 0 0 0 10.924-10.924l-23.445-40.739 35.041-11.685a8 8 0 0 0 0-15.18l-35.041-11.681 23.445-40.739a8 8 0 0 0 -10.924-10.924l-39.51 22.734-12.646-65.325a8 8 0 0 0 -15.708 0l-10.841 56 15.708 3.042 2.987-15.424 6.922 35.756a8 8 0 0 0 11.844 5.413l23.491-13.519-13.518 23.49a8 8 0 0 0 4.4 11.58l21.561 7.187-21.56 7.187a8 8 0 0 0 -4.4 11.58l13.518 23.49-23.491-13.519a8 8 0 0 0 -11.844 5.413l-6.923 35.756-6.922-35.756a8 8 0 0 0 -11.844-5.413l-23.491 13.519 13.518-23.49a8 8 0 0 0 -4.4-11.58l-21.561-7.187 21.56-7.187a8 8 0 0 0 4.4-11.58l-13.518-23.49 23.491 13.519 7.98-13.867-49.223-28.329a8 8 0 0 0 -10.924 10.924l23.445 40.739-35.041 11.681a8 8 0 0 0 0 15.18z"></path><path d="m272 248h16v16h-16z"></path><path d="m232 168h16v16h-16z"></path></g></svg>